<svg xmlns="http://www.w3.org/2000/svg" width="500" height="500" style=""><rect id="backgroundrect" width="100%" height="100%" x="0" y="0" fill="none" stroke="none"/>
 <defs>
  <filter height="200%" width="200%" y="-50%" x="-50%" id="svg_10_blur">
   <feGaussianBlur stdDeviation="0" in="SourceGraphic"/>
  </filter>
 </defs>
 <g style="">
  <title>background</title>
  <rect fill="none" id="canvas_background" height="502" width="502" y="-1" x="-1"/>
 </g>
 <g style="" class="currentLayer">
  <title>Layer 1</title>
  <path id="svg_1" fill="#d25627" d="m388,399.4l0,50.6c0,22.1 -17.9,40 -40,40l-196,0c-22.1,0 -40,-17.9 -40,-40l0,-50.6l0.1,0l275.9,0l0,0zm-117.8,45.8c0,-11.2 -9.1,-20.2 -20.2,-20.2c-11.2,0 -20.2,9.1 -20.2,20.2s9.1,20.2 20.2,20.2c11.2,0.1 20.2,-9 20.2,-20.2z"/>
  <path id="svg_2" fill="#f29c1f" d="m234.6,247.7c8.5,0 15.5,-6.9 15.5,-15.4s-6.9,-15.5 -15.5,-15.5c-8.5,0 -15.4,6.9 -15.4,15.5c0,2.2 0.5,4.4 1.4,6.3c2.3,5.3 7.7,9.1 14,9.1zm66.6,12.5c0,-8.5 -6.9,-15.5 -15.5,-15.5c-5.9,0 -11,3.3 -13.6,8.1c-1.2,2.2 -1.9,4.7 -1.9,7.3c0,8.5 6.9,15.4 15.5,15.4c8.6,0.1 15.5,-6.8 15.5,-15.3zm26.2,-34.5c2.6,2.1 6,3.3 9.6,3.3c8.5,0 15.5,-6.9 15.5,-15.5c0,-8.5 -6.9,-15.4 -15.5,-15.4c-8.5,0 -15.4,6.9 -15.4,15.4c-0.1,5 2.2,9.4 5.8,12.2zm-123.9,53.1c0,-8.5 -6.9,-15.5 -15.5,-15.5c-8.5,0 -15.4,6.9 -15.4,15.5c0,8.5 6.9,15.4 15.4,15.4c8.5,0 15.5,-6.9 15.5,-15.4zm184.5,-186.7l0,307.3l0,0l-275.9,0l-0.1,0l0,-307.3l0.1,0l275.9,0l0,0z" class="" fill-opacity="1"/>
  <path id="svg_3" fill="#d25627" d="m388,50l0,42.1l0,0l-275.9,0l-0.1,0l0,-42.1c0,-22.1 17.9,-40 40,-40l196,0c22.1,0 40,17.9 40,40z"/>
  <g id="svg_4" class="" fill-opacity="1" fill="#f29c1f">
   <path id="svg_5" fill="#f29c1f" d="m327.4,225.7c-3.6,-2.8 -5.9,-7.2 -5.9,-12.1c0,-8.5 6.9,-15.4 15.4,-15.4s15.5,6.9 15.5,15.4s-6.9,15.5 -15.5,15.5c-3.5,0 -6.9,-1.3 -9.5,-3.4z"/>
   <path id="svg_6" fill="#f29c1f" d="m272.2,252.8c2.6,-4.8 7.7,-8.1 13.6,-8.1c8.5,0 15.5,6.9 15.5,15.5s-6.9,15.4 -15.5,15.4c-8.5,0 -15.5,-6.9 -15.5,-15.4c0,-2.7 0.7,-5.2 1.9,-7.4z"/>
   <circle id="svg_7" fill="#f29c1f" r="20.200000762939453" cy="445.20001220703125" cx="250"/>
   <path id="svg_8" fill="#f29c1f" d="m220.5,238.6c-0.9,-1.9 -1.4,-4.1 -1.4,-6.3c0,-8.5 6.9,-15.5 15.4,-15.5s15.5,6.9 15.5,15.5c0,8.5 -6.9,15.4 -15.5,15.4c-6.2,0 -11.6,-3.8 -14,-9.1z"/>
   <circle id="svg_9" fill="#f29c1f" r="15.399999618530273" cy="278.79998779296875" cx="188"/>
  </g>
  <path filter="url(#svg_10_blur)" id="svg_10" d="m348,0l-196,0c-27.6,0 -50,22.4 -50,50l0,400c0,27.6 22.4,50 50,50l196,0c27.6,0 50,-22.4 50,-50l0,-400c0,-27.6 -22.4,-50 -50,-50zm-196,20l196,0c16.5,0 30,13.5 30,30l0,32l-256,0l0,-32c0,-16.5 13.5,-30 30,-30zm226,82l0,287l-256,0l0,-287l256,0zm-30,378l-196,0c-16.5,0 -30,-13.5 -30,-30l0,-41l256,0l0,41c0,16.5 -13.5,30 -30,30z" class="" fill-opacity="1" fill="#04058f"/>
  <path id="svg_11" d="m235,72l30,0c5.5,0 10,-4.5 10,-10s-4.5,-10 -10,-10l-30,0c-5.5,0 -10,4.5 -10,10s4.5,10 10,10z" class="" fill-opacity="1" fill="#04058f"/>
  <path id="svg_12" d="m250,415c-16.7,0 -30.2,13.6 -30.2,30.2s13.6,30.2 30.2,30.2s30.2,-13.6 30.2,-30.2s-13.5,-30.2 -30.2,-30.2zm0,40.5c-5.6,0 -10.2,-4.6 -10.2,-10.2s4.6,-10.3 10.2,-10.3s10.2,4.6 10.2,10.2s-4.6,10.3 -10.2,10.3z" class="" fill-opacity="1" fill="#04058f"/>
  <path id="svg_13" d="m156.9,333l177.1,0c5.5,0 10,-4.5 10,-10s-4.5,-10 -10,-10l-176,0l0,-136c0,-5.5 -4.5,-10 -10,-10s-10,4.5 -10,10l0,136.6c0,10.7 8.2,19.4 18.9,19.4z" class="" fill-opacity="1" fill="#04058f"/>
  <path id="svg_14" d="m188,304.2c14,0 25.5,-11.4 25.5,-25.5c0,-4.3 -1.1,-8.3 -2.9,-11.8l10.5,-13.2c4,2.5 8.6,3.9 13.5,3.9c7.2,0 13.7,-3 18.3,-7.8l7.8,6.4c-0.2,1.3 -0.3,2.6 -0.3,3.9c0,14 11.4,25.5 25.5,25.5c14,0 25.5,-11.4 25.5,-25.5c0,-0.7 0,-1.3 -0.1,-2l18.6,-20.2c2.3,0.7 4.8,1.1 7.3,1.1c14,0 25.4,-11.4 25.4,-25.5c0,-14 -11.4,-25.5 -25.4,-25.5s-25.5,11.4 -25.5,25.5c0,4.1 1,8.1 2.8,11.6l-13.4,14.5c-4.2,-3.2 -9.5,-5 -15.2,-5c-5.3,0 -10.3,1.6 -14.4,4.5l-11.4,-9.4c-1.2,-12.9 -12.1,-23.1 -25.3,-23.1c-14,0 -25.5,11.4 -25.5,25.5c0,1.4 0.1,2.7 0.3,4.1l-14.4,18c-2.2,-0.6 -4.6,-1 -7,-1c-14,0 -25.4,11.4 -25.4,25.5s11.2,25.5 25.2,25.5zm149,-96c3,0 5.4,2.4 5.4,5.5c0,3 -2.4,5.5 -5.4,5.5c-1.6,0 -2.7,-0.6 -3.4,-1.2c-1.3,-1 -2.1,-2.6 -2.1,-4.3c0,-3.1 2.5,-5.5 5.5,-5.5zm-56,49.4c1,-1.8 2.8,-2.9 4.8,-2.9c3,0 5.5,2.4 5.5,5.5s-2.4,5.5 -5.5,5.5c-3,0 -5.5,-2.4 -5.5,-5.5c0,-0.9 0.2,-1.8 0.7,-2.6zm-46.4,-30.8c3,0 5.5,2.4 5.5,5.5c0,3 -2.4,5.5 -5.5,5.5c-2.1,0 -4.1,-1.3 -5,-3.3c-0.3,-0.7 -0.5,-1.4 -0.5,-2.2c0,-3.1 2.5,-5.5 5.5,-5.5zm-46.6,46.5c3,0 5.5,2.4 5.5,5.5s-2.4,5.5 -5.5,5.5c-3,0 -5.4,-2.4 -5.4,-5.5s2.4,-5.5 5.4,-5.5z" class="" fill-opacity="1" fill="#04058f"/>
  <g id="svg_15"/>
  <g id="svg_16"/>
  <g id="svg_17"/>
  <g id="svg_18"/>
  <g id="svg_19"/>
  <g id="svg_20"/>
  <g id="svg_21"/>
  <g id="svg_22"/>
  <g id="svg_23"/>
  <g id="svg_24"/>
  <g id="svg_25"/>
  <g id="svg_26"/>
  <g id="svg_27"/>
  <g id="svg_28"/>
  <g id="svg_29"/>
  <path id="svg_30" d="m387.5,231.4375c0,0 7,20 6.5,19.5625" opacity="0.5" fill-opacity="null" stroke-opacity="null" stroke-width="null" stroke="null" fill="null"/>
 </g>
</svg>